<mxfile host="65bd71144e">
    <diagram id="dxA4ZDOhXfnmOuQoX5Y3" name="Use Case Diagram">
        <mxGraphModel dx="815" dy="478" grid="1" gridSize="10" guides="1" tooltips="1" connect="1" arrows="1" fold="1" page="1" pageScale="1" pageWidth="850" pageHeight="1100" math="0" shadow="0">
            <root>
                <mxCell id="0"/>
                <mxCell id="1" parent="0"/>
                <mxCell id="488" value="" style="rounded=0;whiteSpace=wrap;html=1;fillColor=none;" parent="1" vertex="1">
                    <mxGeometry x="210" y="180" width="240" height="400" as="geometry"/>
                </mxCell>
                <mxCell id="489" value="Mitra" style="shape=umlActor;verticalLabelPosition=bottom;verticalAlign=top;html=1;" parent="1" vertex="1">
                    <mxGeometry x="90" y="470" width="30" height="60" as="geometry"/>
                </mxCell>
                <mxCell id="490" value="Check Hotel List" style="ellipse;whiteSpace=wrap;html=1;" parent="1" vertex="1">
                    <mxGeometry x="280" y="270" width="100" height="50" as="geometry"/>
                </mxCell>
                <mxCell id="491" style="rounded=0;orthogonalLoop=1;jettySize=auto;html=1;endArrow=none;endFill=0;entryX=1;entryY=0.5;entryDx=0;entryDy=0;" parent="1" target="490" edge="1">
                    <mxGeometry relative="1" as="geometry">
                        <mxPoint x="530" y="400" as="sourcePoint"/>
                    </mxGeometry>
                </mxCell>
                <mxCell id="492" style="rounded=0;orthogonalLoop=1;jettySize=auto;html=1;entryX=1;entryY=0.5;entryDx=0;entryDy=0;endArrow=none;endFill=0;" parent="1" target="500" edge="1">
                    <mxGeometry relative="1" as="geometry">
                        <mxPoint x="530" y="400" as="sourcePoint"/>
                    </mxGeometry>
                </mxCell>
                <mxCell id="493" style="edgeStyle=none;rounded=0;orthogonalLoop=1;jettySize=auto;html=1;entryX=1;entryY=0.5;entryDx=0;entryDy=0;endArrow=none;endFill=0;" parent="1" target="502" edge="1">
                    <mxGeometry relative="1" as="geometry">
                        <mxPoint x="530" y="400" as="sourcePoint"/>
                    </mxGeometry>
                </mxCell>
                <mxCell id="494" style="edgeStyle=none;rounded=0;orthogonalLoop=1;jettySize=auto;html=1;entryX=1;entryY=0.5;entryDx=0;entryDy=0;endArrow=none;endFill=0;" parent="1" target="504" edge="1">
                    <mxGeometry relative="1" as="geometry">
                        <mxPoint x="530" y="400" as="sourcePoint"/>
                    </mxGeometry>
                </mxCell>
                <mxCell id="495" value="Admin" style="shape=umlActor;verticalLabelPosition=bottom;verticalAlign=top;html=1;" parent="1" vertex="1">
                    <mxGeometry x="540" y="370" width="30" height="60" as="geometry"/>
                </mxCell>
                <mxCell id="496" style="rounded=0;orthogonalLoop=1;jettySize=auto;html=1;endArrow=none;endFill=0;" parent="1" target="490" edge="1">
                    <mxGeometry relative="1" as="geometry">
                        <mxPoint x="130" y="330" as="sourcePoint"/>
                    </mxGeometry>
                </mxCell>
                <mxCell id="497" value="User" style="shape=umlActor;verticalLabelPosition=bottom;verticalAlign=top;html=1;" parent="1" vertex="1">
                    <mxGeometry x="90" y="300" width="30" height="60" as="geometry"/>
                </mxCell>
                <mxCell id="498" value="&lt;span style=&quot;color: rgb(240 , 240 , 240) ; font-family: &amp;#34;helvetica&amp;#34; ; font-size: 12px ; font-style: normal ; font-weight: 400 ; letter-spacing: normal ; text-indent: 0px ; text-transform: none ; word-spacing: 0px ; background-color: rgb(42 , 42 , 42) ; display: inline ; float: none&quot;&gt;«subsystem»&lt;/span&gt;&lt;br style=&quot;color: rgb(240 , 240 , 240) ; font-family: &amp;#34;helvetica&amp;#34; ; font-size: 12px ; font-style: normal ; font-weight: 400 ; letter-spacing: normal ; text-indent: 0px ; text-transform: none ; word-spacing: 0px ; background-color: rgb(42 , 42 , 42)&quot;&gt;&lt;b style=&quot;color: rgb(240 , 240 , 240) ; font-family: &amp;#34;helvetica&amp;#34; ; font-size: 12px ; font-style: normal ; letter-spacing: normal ; text-indent: 0px ; text-transform: none ; word-spacing: 0px ; background-color: rgb(42 , 42 , 42)&quot;&gt;Pemesanan Penginapan&amp;nbsp;&lt;/b&gt;" style="text;whiteSpace=wrap;html=1;align=center;" parent="1" vertex="1">
                    <mxGeometry x="210" y="180" width="155" height="40" as="geometry"/>
                </mxCell>
                <mxCell id="499" style="edgeStyle=none;rounded=0;orthogonalLoop=1;jettySize=auto;html=1;endArrow=none;endFill=0;" parent="1" source="500" edge="1">
                    <mxGeometry relative="1" as="geometry">
                        <mxPoint x="130" y="330" as="targetPoint"/>
                    </mxGeometry>
                </mxCell>
                <mxCell id="500" value="Case 2" style="ellipse;whiteSpace=wrap;html=1;" parent="1" vertex="1">
                    <mxGeometry x="280" y="350" width="100" height="50" as="geometry"/>
                </mxCell>
                <mxCell id="501" style="edgeStyle=none;rounded=0;orthogonalLoop=1;jettySize=auto;html=1;endArrow=none;endFill=0;" parent="1" source="502" edge="1">
                    <mxGeometry relative="1" as="geometry">
                        <mxPoint x="130" y="500" as="targetPoint"/>
                    </mxGeometry>
                </mxCell>
                <mxCell id="502" value="Case 3" style="ellipse;whiteSpace=wrap;html=1;" parent="1" vertex="1">
                    <mxGeometry x="280" y="430" width="100" height="50" as="geometry"/>
                </mxCell>
                <mxCell id="503" style="edgeStyle=none;rounded=0;orthogonalLoop=1;jettySize=auto;html=1;endArrow=none;endFill=0;" parent="1" source="504" edge="1">
                    <mxGeometry relative="1" as="geometry">
                        <mxPoint x="130" y="500" as="targetPoint"/>
                    </mxGeometry>
                </mxCell>
                <mxCell id="504" value="Case 4" style="ellipse;whiteSpace=wrap;html=1;" parent="1" vertex="1">
                    <mxGeometry x="280" y="510" width="100" height="50" as="geometry"/>
                </mxCell>
                <mxCell id="505" value="User" style="shape=umlActor;verticalLabelPosition=bottom;verticalAlign=top;html=1;outlineConnect=0;" parent="1" vertex="1">
                    <mxGeometry x="590" y="840" width="30" height="60" as="geometry"/>
                </mxCell>
                <mxCell id="506" value="Delete produk dari keranjang" style="ellipse;whiteSpace=wrap;html=1;" parent="1" vertex="1">
                    <mxGeometry x="490" y="1030" width="90" height="60" as="geometry"/>
                </mxCell>
                <mxCell id="507" value="" style="endArrow=none;html=1;exitX=1;exitY=0;exitDx=0;exitDy=0;entryX=0;entryY=1;entryDx=0;entryDy=0;entryPerimeter=0;" parent="1" source="506" target="505" edge="1">
                    <mxGeometry width="50" height="50" relative="1" as="geometry">
                        <mxPoint x="510" y="960" as="sourcePoint"/>
                        <mxPoint x="560" y="910" as="targetPoint"/>
                    </mxGeometry>
                </mxCell>
                <mxCell id="508" value="" style="endArrow=none;html=1;exitX=1;exitY=0.5;exitDx=0;exitDy=0;entryX=0.5;entryY=0.5;entryDx=0;entryDy=0;entryPerimeter=0;" parent="1" source="509" target="505" edge="1">
                    <mxGeometry width="50" height="50" relative="1" as="geometry">
                        <mxPoint x="530" y="870" as="sourcePoint"/>
                        <mxPoint x="560" y="852.5" as="targetPoint"/>
                    </mxGeometry>
                </mxCell>
                <mxCell id="509" value="Add produk ke keranjang" style="ellipse;whiteSpace=wrap;html=1;" parent="1" vertex="1">
                    <mxGeometry x="440" y="965" width="90" height="65" as="geometry"/>
                </mxCell>
                <mxCell id="510" value="Admin" style="shape=umlActor;verticalLabelPosition=bottom;verticalAlign=top;html=1;outlineConnect=0;" parent="1" vertex="1">
                    <mxGeometry x="970" y="850" width="30" height="60" as="geometry"/>
                </mxCell>
                <mxCell id="511" value="Mitra" style="shape=umlActor;verticalLabelPosition=bottom;verticalAlign=top;html=1;outlineConnect=0;" parent="1" vertex="1">
                    <mxGeometry x="770" y="1150" width="30" height="60" as="geometry"/>
                </mxCell>
                <mxCell id="512" value="Log in" style="ellipse;whiteSpace=wrap;html=1;" parent="1" vertex="1">
                    <mxGeometry x="732.5" y="952.5" width="105" height="50" as="geometry"/>
                </mxCell>
                <mxCell id="513" value="" style="endArrow=none;html=1;exitX=0;exitY=0;exitDx=0;exitDy=0;entryX=1;entryY=0.3333333333333333;entryDx=0;entryDy=0;entryPerimeter=0;" parent="1" source="512" target="505" edge="1">
                    <mxGeometry width="50" height="50" relative="1" as="geometry">
                        <mxPoint x="559.9999999999998" y="970" as="sourcePoint"/>
                        <mxPoint x="600" y="910" as="targetPoint"/>
                    </mxGeometry>
                </mxCell>
                <mxCell id="514" value="" style="endArrow=none;html=1;exitX=0.948;exitY=0.28;exitDx=0;exitDy=0;entryX=0;entryY=1;entryDx=0;entryDy=0;entryPerimeter=0;exitPerimeter=0;" parent="1" source="512" target="510" edge="1">
                    <mxGeometry width="50" height="50" relative="1" as="geometry">
                        <mxPoint x="752.5000000000036" y="1085" as="sourcePoint"/>
                        <mxPoint x="640" y="990" as="targetPoint"/>
                    </mxGeometry>
                </mxCell>
                <mxCell id="515" value="" style="endArrow=none;html=1;exitX=0.5;exitY=1;exitDx=0;exitDy=0;entryX=0.5;entryY=0;entryDx=0;entryDy=0;entryPerimeter=0;" parent="1" source="512" target="511" edge="1">
                    <mxGeometry width="50" height="50" relative="1" as="geometry">
                        <mxPoint x="810" y="1144" as="sourcePoint"/>
                        <mxPoint x="927.96" y="1060" as="targetPoint"/>
                    </mxGeometry>
                </mxCell>
                <mxCell id="516" value="" style="endArrow=none;html=1;entryX=0;entryY=0.3333333333333333;entryDx=0;entryDy=0;entryPerimeter=0;exitX=1;exitY=0.5;exitDx=0;exitDy=0;" parent="1" source="517" target="505" edge="1">
                    <mxGeometry width="50" height="50" relative="1" as="geometry">
                        <mxPoint x="470" y="870" as="sourcePoint"/>
                        <mxPoint x="570" y="840" as="targetPoint"/>
                    </mxGeometry>
                </mxCell>
                <mxCell id="517" value="Membeli&lt;br&gt;Produk" style="ellipse;whiteSpace=wrap;html=1;" parent="1" vertex="1">
                    <mxGeometry x="420" y="900" width="90" height="65" as="geometry"/>
                </mxCell>
                <mxCell id="518" value="" style="endArrow=none;html=1;entryX=0.25;entryY=0.1;entryDx=0;entryDy=0;entryPerimeter=0;exitX=1;exitY=0.5;exitDx=0;exitDy=0;" parent="1" source="519" target="505" edge="1">
                    <mxGeometry width="50" height="50" relative="1" as="geometry">
                        <mxPoint x="480" y="820" as="sourcePoint"/>
                        <mxPoint x="600" y="827.5" as="targetPoint"/>
                    </mxGeometry>
                </mxCell>
                <mxCell id="519" value="Top Up&lt;br&gt;Saldo" style="ellipse;whiteSpace=wrap;html=1;" parent="1" vertex="1">
                    <mxGeometry x="400" y="840" width="90" height="65" as="geometry"/>
                </mxCell>
                <mxCell id="520" value="" style="endArrow=none;html=1;entryX=0.5;entryY=0;entryDx=0;entryDy=0;entryPerimeter=0;exitX=0.992;exitY=0.68;exitDx=0;exitDy=0;exitPerimeter=0;" parent="1" source="521" target="505" edge="1">
                    <mxGeometry width="50" height="50" relative="1" as="geometry">
                        <mxPoint x="510" y="770" as="sourcePoint"/>
                        <mxPoint x="607.5" y="826.7499999999998" as="targetPoint"/>
                    </mxGeometry>
                </mxCell>
                <mxCell id="521" value="Edit profil" style="ellipse;whiteSpace=wrap;html=1;" parent="1" vertex="1">
                    <mxGeometry x="400" y="770" width="90" height="65" as="geometry"/>
                </mxCell>
                <mxCell id="522" value="" style="endArrow=none;html=1;entryX=0.5;entryY=0;entryDx=0;entryDy=0;entryPerimeter=0;exitX=0.5;exitY=1;exitDx=0;exitDy=0;" parent="1" source="523" target="505" edge="1">
                    <mxGeometry width="50" height="50" relative="1" as="geometry">
                        <mxPoint x="589.9961076171595" y="750.0025387430767" as="sourcePoint"/>
                        <mxPoint x="664.83" y="830.56" as="targetPoint"/>
                    </mxGeometry>
                </mxCell>
                <mxCell id="523" value="Memakai&amp;nbsp;&lt;br&gt;Promo/kode voucher" style="ellipse;whiteSpace=wrap;html=1;" parent="1" vertex="1">
                    <mxGeometry x="420" y="705" width="90" height="65" as="geometry"/>
                </mxCell>
                <mxCell id="524" value="" style="endArrow=none;html=1;exitX=0.5;exitY=1;exitDx=0;exitDy=0;entryX=0.5;entryY=0;entryDx=0;entryDy=0;entryPerimeter=0;" parent="1" source="525" target="505" edge="1">
                    <mxGeometry width="50" height="50" relative="1" as="geometry">
                        <mxPoint x="640" y="765" as="sourcePoint"/>
                        <mxPoint x="613" y="840" as="targetPoint"/>
                    </mxGeometry>
                </mxCell>
                <mxCell id="525" value="Mengajukan User menjadi premium" style="ellipse;whiteSpace=wrap;html=1;" parent="1" vertex="1">
                    <mxGeometry x="490" y="655" width="110" height="75" as="geometry"/>
                </mxCell>
                <mxCell id="526" value="Memilih alat pembayaran" style="ellipse;whiteSpace=wrap;html=1;" parent="1" vertex="1">
                    <mxGeometry x="600" y="655" width="90" height="65" as="geometry"/>
                </mxCell>
                <mxCell id="527" value="" style="endArrow=none;html=1;entryX=0.75;entryY=0.1;entryDx=0;entryDy=0;entryPerimeter=0;exitX=0.25;exitY=0.938;exitDx=0;exitDy=0;exitPerimeter=0;" parent="1" source="526" target="505" edge="1">
                    <mxGeometry width="50" height="50" relative="1" as="geometry">
                        <mxPoint x="669.9999999999998" y="785" as="sourcePoint"/>
                        <mxPoint x="710" y="910" as="targetPoint"/>
                    </mxGeometry>
                </mxCell>
                <mxCell id="528" value="Register" style="ellipse;whiteSpace=wrap;html=1;" parent="1" vertex="1">
                    <mxGeometry x="590" y="1070" width="105" height="50" as="geometry"/>
                </mxCell>
                <mxCell id="529" value="" style="endArrow=none;html=1;exitX=0.43;exitY=-0.057;exitDx=0;exitDy=0;entryX=1;entryY=1;entryDx=0;entryDy=0;entryPerimeter=0;exitPerimeter=0;" parent="1" source="528" target="505" edge="1">
                    <mxGeometry width="50" height="50" relative="1" as="geometry">
                        <mxPoint x="751.4590553393607" y="1044.8022764119676" as="sourcePoint"/>
                        <mxPoint x="623.54" y="945" as="targetPoint"/>
                    </mxGeometry>
                </mxCell>
                <mxCell id="530" value="" style="endArrow=none;html=1;exitX=0.663;exitY=1.041;exitDx=0;exitDy=0;entryX=0;entryY=0.3333333333333333;entryDx=0;entryDy=0;entryPerimeter=0;exitPerimeter=0;" parent="1" source="528" target="511" edge="1">
                    <mxGeometry width="50" height="50" relative="1" as="geometry">
                        <mxPoint x="695" y="1050" as="sourcePoint"/>
                        <mxPoint x="732.5" y="1177.5" as="targetPoint"/>
                    </mxGeometry>
                </mxCell>
                <mxCell id="531" value="" style="endArrow=none;html=1;exitX=0.693;exitY=0.008;exitDx=0;exitDy=0;exitPerimeter=0;" parent="1" source="532" target="511" edge="1">
                    <mxGeometry width="50" height="50" relative="1" as="geometry">
                        <mxPoint x="700" y="1220" as="sourcePoint"/>
                        <mxPoint x="747.69" y="1239.95" as="targetPoint"/>
                    </mxGeometry>
                </mxCell>
                <mxCell id="532" value="Mengajukan list baru" style="ellipse;whiteSpace=wrap;html=1;" parent="1" vertex="1">
                    <mxGeometry x="615" y="1250" width="105" height="50" as="geometry"/>
                </mxCell>
                <mxCell id="533" value="" style="endArrow=none;html=1;entryX=1;entryY=1;entryDx=0;entryDy=0;entryPerimeter=0;exitX=0.342;exitY=0.002;exitDx=0;exitDy=0;exitPerimeter=0;" parent="1" source="534" target="511" edge="1">
                    <mxGeometry width="50" height="50" relative="1" as="geometry">
                        <mxPoint x="840" y="1230" as="sourcePoint"/>
                        <mxPoint x="922.5" y="1210" as="targetPoint"/>
                    </mxGeometry>
                </mxCell>
                <mxCell id="534" value="Mengajukan list yang mau dihapus" style="ellipse;whiteSpace=wrap;html=1;" parent="1" vertex="1">
                    <mxGeometry x="760" y="1260" width="110" height="50" as="geometry"/>
                </mxCell>
                <mxCell id="535" value="Approve&lt;br&gt;pembatalan&lt;br&gt;pembayaran" style="ellipse;whiteSpace=wrap;html=1;" parent="1" vertex="1">
                    <mxGeometry x="850" y="740" width="90" height="65" as="geometry"/>
                </mxCell>
                <mxCell id="536" value="" style="endArrow=none;html=1;entryX=0;entryY=0.3333333333333333;entryDx=0;entryDy=0;entryPerimeter=0;exitX=0.765;exitY=0.923;exitDx=0;exitDy=0;exitPerimeter=0;" parent="1" source="535" target="510" edge="1">
                    <mxGeometry width="50" height="50" relative="1" as="geometry">
                        <mxPoint x="942.921510154981" y="755.002611205671" as="sourcePoint"/>
                        <mxPoint x="900" y="885.7099999999998" as="targetPoint"/>
                    </mxGeometry>
                </mxCell>
                <mxCell id="537" value="" style="endArrow=none;html=1;entryX=0.5;entryY=0;entryDx=0;entryDy=0;entryPerimeter=0;exitX=0.5;exitY=1;exitDx=0;exitDy=0;" parent="1" source="538" target="510" edge="1">
                    <mxGeometry width="50" height="50" relative="1" as="geometry">
                        <mxPoint x="1000" y="770" as="sourcePoint"/>
                        <mxPoint x="1025" y="870" as="targetPoint"/>
                    </mxGeometry>
                </mxCell>
                <mxCell id="538" value="Membuat event atau promo" style="ellipse;whiteSpace=wrap;html=1;" parent="1" vertex="1">
                    <mxGeometry x="940" y="720" width="90" height="65" as="geometry"/>
                </mxCell>
                <mxCell id="539" value="" style="endArrow=none;html=1;entryX=0.75;entryY=0.1;entryDx=0;entryDy=0;entryPerimeter=0;exitX=0;exitY=1;exitDx=0;exitDy=0;" parent="1" source="540" target="510" edge="1">
                    <mxGeometry width="50" height="50" relative="1" as="geometry">
                        <mxPoint x="1060" y="810" as="sourcePoint"/>
                        <mxPoint x="1030" y="871.75" as="targetPoint"/>
                    </mxGeometry>
                </mxCell>
                <mxCell id="540" value="Mengapply list yang diajukan mitra" style="ellipse;whiteSpace=wrap;html=1;" parent="1" vertex="1">
                    <mxGeometry x="1030" y="725" width="90" height="65" as="geometry"/>
                </mxCell>
                <mxCell id="541" value="" style="endArrow=none;html=1;entryX=1;entryY=0.3333333333333333;entryDx=0;entryDy=0;entryPerimeter=0;exitX=0;exitY=0.5;exitDx=0;exitDy=0;" parent="1" source="542" target="510" edge="1">
                    <mxGeometry width="50" height="50" relative="1" as="geometry">
                        <mxPoint x="1080" y="820" as="sourcePoint"/>
                        <mxPoint x="1000" y="879.9999999999998" as="targetPoint"/>
                    </mxGeometry>
                </mxCell>
                <mxCell id="542" value="Mengupdate status user" style="ellipse;whiteSpace=wrap;html=1;" parent="1" vertex="1">
                    <mxGeometry x="1080" y="785" width="90" height="65" as="geometry"/>
                </mxCell>
                <mxCell id="543" value="" style="endArrow=none;html=1;entryX=0.5;entryY=0.5;entryDx=0;entryDy=0;entryPerimeter=0;exitX=0;exitY=0.5;exitDx=0;exitDy=0;" parent="1" source="544" target="510" edge="1">
                    <mxGeometry width="50" height="50" relative="1" as="geometry">
                        <mxPoint x="1090" y="880" as="sourcePoint"/>
                        <mxPoint x="1035" y="906.25" as="targetPoint"/>
                    </mxGeometry>
                </mxCell>
                <mxCell id="544" value="Menentukan presentasi diskon" style="ellipse;whiteSpace=wrap;html=1;" parent="1" vertex="1">
                    <mxGeometry x="1090" y="850" width="90" height="65" as="geometry"/>
                </mxCell>
                <mxCell id="545" value="" style="endArrow=none;html=1;entryX=0.5;entryY=0.5;entryDx=0;entryDy=0;entryPerimeter=0;exitX=0;exitY=0.5;exitDx=0;exitDy=0;" parent="1" source="546" target="510" edge="1">
                    <mxGeometry width="50" height="50" relative="1" as="geometry">
                        <mxPoint x="1090" y="940" as="sourcePoint"/>
                        <mxPoint x="1065" y="952.5" as="targetPoint"/>
                    </mxGeometry>
                </mxCell>
                <mxCell id="546" value="Menentukan keuntungan yang didapatkan Mitra" style="ellipse;whiteSpace=wrap;html=1;" parent="1" vertex="1">
                    <mxGeometry x="1075" y="920" width="120" height="70" as="geometry"/>
                </mxCell>
                <mxCell id="547" value="" style="endArrow=none;html=1;exitX=0.08;exitY=0.18;exitDx=0;exitDy=0;exitPerimeter=0;" parent="1" source="548" target="511" edge="1">
                    <mxGeometry width="50" height="50" relative="1" as="geometry">
                        <mxPoint x="878" y="1220" as="sourcePoint"/>
                        <mxPoint x="870" y="1189" as="targetPoint"/>
                    </mxGeometry>
                </mxCell>
                <mxCell id="548" value="Melihat list yang mitra masukan" style="ellipse;whiteSpace=wrap;html=1;" parent="1" vertex="1">
                    <mxGeometry x="900" y="1240" width="110" height="50" as="geometry"/>
                </mxCell>
                <mxCell id="549" value="" style="endArrow=none;html=1;entryX=1;entryY=1;entryDx=0;entryDy=0;entryPerimeter=0;exitX=0.24;exitY=0.086;exitDx=0;exitDy=0;exitPerimeter=0;" parent="1" source="550" target="510" edge="1">
                    <mxGeometry width="50" height="50" relative="1" as="geometry">
                        <mxPoint x="1090" y="1002.5" as="sourcePoint"/>
                        <mxPoint x="1000" y="957.5" as="targetPoint"/>
                    </mxGeometry>
                </mxCell>
                <mxCell id="550" value="Meniadakan event atau promo" style="ellipse;whiteSpace=wrap;html=1;" parent="1" vertex="1">
                    <mxGeometry x="1055" y="990" width="115" height="67.5" as="geometry"/>
                </mxCell>
                <mxCell id="551" value="&lt;h1&gt;Use Case Diagram&lt;/h1&gt;&lt;p&gt;&lt;font style=&quot;font-size: 14px&quot;&gt;Penjelasan fitur-fitur yang bisa digunakan untuk masing-masing status user.&lt;/font&gt;&lt;/p&gt;" style="text;html=1;strokeColor=none;fillColor=none;spacing=5;spacingTop=-20;whiteSpace=wrap;overflow=hidden;rounded=0;" parent="1" vertex="1">
                    <mxGeometry x="10" y="10" width="260" height="120" as="geometry"/>
                </mxCell>
            </root>
        </mxGraphModel>
    </diagram>
</mxfile>